<svg version="1.0" xmlns="http://www.w3.org/2000/svg"
     width="1500.000000pt" height="1000.000000pt" viewBox="0 0 1500.000000 1000.000000"
     preserveAspectRatio="xMidYMid meet">
    <metadata>
        Created by potrace 1.16, written by Peter Selinger 2001-2019
    </metadata>
    <g transform="translate(0.000000,1000.000000) scale(0.100000,-0.100000)"
       fill="#000000" stroke="none">
        <path d="M6202 7765 c-76 -21 -99 -36 -175 -109 -151 -148 -245 -341 -362
-747 -31 -107 -60 -198 -66 -204 -5 -5 -9 -22 -9 -37 0 -15 -14 -72 -31 -125
-67 -209 -121 -319 -204 -410 l-45 -51 0 -1926 c0 -1059 3 -1926 8 -1925 4 0
66 73 137 161 139 172 142 175 264 313 155 175 335 318 504 399 136 66 214 86
337 86 169 0 266 -36 458 -172 165 -117 239 -151 332 -156 81 -3 149 17 355
104 75 31 106 39 190 45 107 7 125 12 168 42 18 12 32 16 38 10 6 -6 22 -65
37 -131 24 -113 39 -142 56 -113 7 10 -13 116 -41 220 l-17 63 40 34 c21 18
44 33 49 34 15 0 69 -84 109 -170 38 -79 76 -212 76 -264 0 -39 14 -61 33 -53
19 7 13 73 -20 187 -29 104 -70 194 -124 273 l-41 59 23 24 23 25 69 -68 c75
-74 215 -254 268 -345 35 -60 46 -68 55 -43 13 33 -144 256 -286 408 -56 60
-80 92 -76 103 8 22 38 14 153 -41 107 -50 183 -99 252 -161 27 -24 54 -44 60
-44 46 0 -63 110 -176 178 -39 24 -113 61 -164 84 -52 22 -95 42 -97 43 -5 5
49 188 75 255 31 79 57 115 143 200 84 83 136 162 177 272 53 141 62 222 66
608 4 372 8 407 62 489 34 50 51 104 86 264 36 163 68 265 108 345 16 32 103
147 193 257 253 310 342 435 399 561 35 76 32 125 -8 151 -54 35 -267 -23
-498 -136 -139 -68 -192 -93 -496 -229 -86 -39 -252 -119 -370 -177 l-214
-107 -218 57 c-120 31 -275 74 -345 96 -70 21 -207 62 -304 91 l-177 52 -26
105 c-15 59 -31 129 -35 156 -5 28 -16 84 -25 125 -8 41 -24 132 -35 202 -32
207 -97 355 -234 524 -35 44 -86 98 -113 120 -26 21 -57 48 -68 60 -56 57
-206 86 -303 59z m904 -2704 c118 -52 215 -163 254 -287 24 -80 38 -261 21
-292 -8 -14 -37 -30 -94 -48 -68 -23 -101 -27 -192 -28 -95 -1 -117 3 -162 23
-60 26 -135 101 -159 158 -9 21 -25 56 -34 78 -26 58 -40 145 -40 255 l0 96
53 26 c118 60 245 66 353 19z m1555 -468 c21 -21 22 -25 11 -100 -15 -108 -56
-232 -96 -290 -36 -53 -88 -88 -145 -97 -53 -8 -158 17 -241 59 l-72 36 6 37
c19 106 68 213 129 279 73 79 141 103 284 100 90 -2 105 -5 124 -24z"/>
        <path d="M7045 4879 c-86 -79 -113 -176 -80 -283 10 -31 23 -56 29 -56 7 0 35
24 63 53 42 42 55 64 69 114 16 58 16 66 0 130 -9 37 -20 71 -25 76 -5 5 -28
-9 -56 -34z"/>
        <path d="M8332 4504 c-17 -14 -44 -47 -60 -72 -22 -38 -27 -58 -26 -107 1 -33
8 -76 16 -95 l15 -35 51 52 c73 75 89 158 50 252 l-13 31 -33 -26z"/>
    </g>
</svg>